<svg width="51" height="54" viewBox="0 0 51 54" fill="none" xmlns="http://www.w3.org/2000/svg">
<path d="M45.916 44.483C43.991 44.483 42.342 45.662 41.648 47.336H13.921C13.453 46.206 12.55 45.303 11.419 44.834V39.805H47.126C48.101 39.805 48.892 39.014 48.892 38.039V19.149C48.892 19.148 48.892 19.147 48.892 19.147C48.892 19.118 48.886 19.089 48.884 19.06C48.88 18.977 48.874 18.894 48.858 18.814C48.852 18.782 48.84 18.75 48.832 18.718C48.812 18.64 48.79 18.563 48.76 18.489C48.755 18.478 48.754 18.466 48.749 18.454C48.738 18.429 48.722 18.409 48.711 18.385C48.679 18.319 48.645 18.255 48.606 18.194C48.582 18.157 48.556 18.121 48.53 18.086C48.491 18.035 48.449 17.986 48.405 17.939C48.373 17.905 48.342 17.872 48.308 17.842C48.261 17.799 48.21 17.761 48.158 17.723C48.122 17.697 48.088 17.671 48.051 17.648C47.994 17.613 47.933 17.584 47.871 17.555C47.834 17.538 47.798 17.518 47.76 17.503C47.698 17.479 47.632 17.463 47.567 17.446C47.525 17.435 47.485 17.421 47.442 17.413C47.437 17.412 47.433 17.41 47.429 17.409L10.701 11.038L8.282 7.425C8.879 6.647 9.238 5.676 9.238 4.619C9.238 2.068 7.17 0 4.619 0C2.068 0 0 2.068 0 4.619C0 7.17 2.068 9.23799 4.619 9.23799C4.822 9.23799 5.02 9.21999 5.216 9.19499L7.88799 13.186V27.435V32.852V38.041V44.836C6.21399 45.53 5.035 47.178 5.035 49.104C5.035 51.655 7.103 53.723 9.654 53.723C11.579 53.723 13.228 52.544 13.922 50.87H41.649C42.343 52.544 43.991 53.723 45.917 53.723C48.468 53.723 50.536 51.655 50.536 49.104C50.535 46.551 48.467 44.483 45.916 44.483ZM11.42 36.273V32.85V27.433V14.747L40.957 19.871L31.011 24.131C30.178 23.318 29.041 22.815 27.785 22.815C25.234 22.815 23.166 24.883 23.166 27.434C23.166 29.985 25.234 32.053 27.785 32.053C30.336 32.053 32.404 29.985 32.404 27.434C32.404 27.415 32.401 27.397 32.401 27.378L45.361 21.826V36.273H11.42Z" fill="url(#paint0_linear_1_39)"/>
<defs>
<linearGradient id="paint0_linear_1_39" x1="-9.805" y1="28.5861" x2="64.3653" y2="28.5861" gradientUnits="userSpaceOnUse">
<stop stop-color="#FFD522"/>
<stop offset="1" stop-color="#F44566"/>
</linearGradient>
</defs>
</svg>
